<?xml version="1.0" encoding="UTF-8" standalone="no"?>
<!DOCTYPE svg  PUBLIC '-//W3C//DTD SVG 1.1//EN'  'http://www.w3.org/Graphics/SVG/1.1/DTD/svg11.dtd'>
<svg xmlns="http://www.w3.org/2000/svg">
<defs>
<font id="HelveticaNeueLT-CondensedObl" horiz-adv-x="444">
<font-face slope="-11" underline-position="-75" font-weight="400" descent="-200" panose-1="0 0 4 0 0 0 0 0 0 0" units-per-em="1000" unicode-range="U+0001-2122" bbox="-61 -212 1068 932" x-height="536" underline-thickness="50" font-family="HelveticaNeueLT" ascent="800" font-style="italic" cap-height="714"/>
<missing-glyph horiz-adv-x="1000"/>
<glyph glyph-name=".notdef" horiz-adv-x="1000"/>
<glyph glyph-name=".null" horiz-adv-x="0"/>
<glyph glyph-name="nonmarkingreturn" horiz-adv-x="1000"/>
<glyph glyph-name="caron" d="M401 752l-131 -142h-77l-70 142h78l42 -88l80 88h78z" horiz-adv-x="204"/>
<glyph glyph-name="dotlessi" d="M60 0l114 536h84l-114 -536h-84z" horiz-adv-x="204"/>
<glyph glyph-name="ring" d="M190 678q0 -19 13 -32t34 -13q26 0 48 21t22 48q0 19 -13 32t-33 13q-27 0 -49 -21t-22 -48zM270 789q35 0 57.5 -22t22.5 -56q0 -47 -37.5 -83.5t-84.5 -36.5q-36 0 -58.5 22t-22.5 56q0 47 38 83.5t85 36.5z" horiz-adv-x="204"/>
<glyph glyph-name="space" horiz-adv-x="240" unicode=" "/>
<glyph glyph-name="exclam" horiz-adv-x="258" unicode="!" d="M83 0l20 96h92l-20 -96h-92zM139 186l96 528h92l-128 -528h-60z"/>
<glyph glyph-name="quotedbl" horiz-adv-x="407" unicode='&quot;' d="M352 460l54 254h66l-54 -254h-66zM185 460l54 254h66l-54 -254h-66z"/>
<glyph glyph-name="numbersign" horiz-adv-x="480" unicode="#" d="M288 425l-51 -154h106l51 154h-106zM79 0l70 205h-82l14 66h90l51 154h-87l14 66h96l69 203h66l-69 -203h106l69 203h66l-69 -203h78l-14 -66h-87l-51 -154h83l-14 -66h-91l-70 -205h-66l70 205h-106l-70 -205h-66z"/>
<glyph glyph-name="dollar" horiz-adv-x="480" unicode="$" d="M367 708l13 58h42l-13 -58q146 -7 146 -134q0 -27 -7 -60h-88q5 24 5 43q0 72 -71 79l-52 -245q87 -32 110 -47q54 -36 54 -103q0 -22 -6 -48q-22 -103 -97 -157q-62 -45 -147 -50l-20 -94h-42l20 94q-158 6 -158 142q0 38 11 90h88q-10 -49 -10 -74q0 -78 84 -86l56 262 q-75 26 -103 47q-48 37 -48 101q0 22 6 48q14 68 57 116q63 69 170 76zM303 405l49 231q-97 -12 -118 -111q-4 -16 -4 -29q0 -60 73 -91zM324 306l-53 -248q48 4 85.5 37t48.5 84q3 16 3 30q0 63 -84 97z"/>
<glyph glyph-name="percent" horiz-adv-x="759" unicode="%" d="M579 -14q-103 0 -103 99q0 34 13 93q19 92 49 134q42 58 123 58q102 0 102 -99q0 -34 -12 -93q-20 -92 -49 -133q-42 -59 -123 -59zM246 324q-103 0 -103 99q0 34 13 93q19 92 49 134q42 58 122 58q103 0 103 -99q0 -34 -12 -93q-20 -92 -50 -133q-41 -59 -122 -59z M591 40q38 0 58 38q14 27 30 100q13 62 13 88q0 50 -43 50q-38 0 -58 -38q-15 -27 -30 -100q-13 -62 -13 -88q0 -50 43 -50zM183 -14l463 722h70l-463 -722h-70zM257 378q39 0 59 38q14 27 30 100q13 62 13 88q0 50 -43 50q-38 0 -59 -38q-14 -27 -29 -100q-14 -62 -14 -88 q0 -50 43 -50z"/>
<glyph glyph-name="ampersand" horiz-adv-x="556" unicode="&amp;" d="M360 400l98 -202q33 55 58 139h78q-9 -41 -43 -110q-35 -73 -60 -98l65 -129h-95l-34 67q-54 -43 -92 -60q-47 -21 -101 -21q-96 0 -140 52q-34 40 -34 103q0 22 4 43q24 112 136 185l61 39l-15 36q-27 69 -27 101q0 14 3 29q13 62 64.5 101t113.5 39q126 0 126 -97 q0 -18 -4 -39q-10 -47 -50 -89q-25 -27 -81 -67zM399 127l-109 227q-115 -61 -136 -163q-4 -18 -4 -34q0 -47 29.5 -73t76.5 -26q68 0 143 69zM334 453l23 18q40 31 54 47q26 28 33 60q2 8 2 16q0 54 -59 54q-38 0 -63 -26t-25 -63q0 -35 23 -82z"/>
<glyph glyph-name="quotesingle" horiz-adv-x="240" unicode="&apos;" d="M185 460l54 254h66l-54 -254h-66z"/>
<glyph glyph-name="parenleft" horiz-adv-x="241" unicode="(" d="M341 714h48q-149 -181 -206 -449q-22 -106 -22 -203q0 -125 37 -246h-48q-67 130 -67 292q0 164 72 327q67 153 186 279z"/>
<glyph glyph-name="parenright" horiz-adv-x="241" unicode=")" d="M13 -184h-48q148 181 205 449q23 106 23 203q0 125 -37 246h48q67 -130 67 -292q0 -164 -72 -327q-67 -153 -186 -279z"/>
<glyph glyph-name="asterisk" horiz-adv-x="352" unicode="*" d="M272 595l26 119h60l-26 -119l116 41l10 -58l-120 -34l56 -94l-58 -37l-51 102l-93 -102l-42 37l96 94l-106 34l34 58z"/>
<glyph glyph-name="plus" horiz-adv-x="600" unicode="+" d="M267 0l47 220h-220l14 66h220l47 220h66l-47 -220h220l-14 -66h-220l-47 -220h-66z"/>
<glyph glyph-name="comma" horiz-adv-x="240" unicode="," d="M74 0l23 106h92l-19 -87q-15 -70 -36 -103q-30 -48 -91 -64l10 47q48 21 60 77l5 24h-44z"/>
<glyph glyph-name="hyphenminus" horiz-adv-x="600" unicode="-" d="M94 220l14 66h506l-14 -66h-506z"/>
<glyph glyph-name="period" horiz-adv-x="240" unicode="." d="M74 0l23 106h92l-23 -106h-92z"/>
<glyph glyph-name="slash" horiz-adv-x="278" unicode="/" d="M-13 -14l390 742h66l-390 -742h-66z"/>
<glyph glyph-name="zero" horiz-adv-x="480" unicode="0" d="M199 344q-27 -127 -27 -184q0 -108 79 -108q73 0 117 90q29 60 59 202q28 132 28 191q0 107 -79 107q-72 0 -116 -91q-30 -60 -61 -207zM237 -14q-152 0 -152 169q0 66 26 189q34 162 81 241q72 123 198 123q152 0 152 -169q0 -67 -27 -195q-33 -157 -79 -235 q-73 -123 -199 -123z"/>
<glyph glyph-name="one" horiz-adv-x="480" unicode="1" d="M180 532l13 60q84 5 124 22q58 27 75 94h60l-150 -708h-84l113 532h-151z"/>
<glyph glyph-name="two" horiz-adv-x="480" unicode="2" d="M455 78l-17 -78h-396q34 161 215 290l68 49q57 41 84 74q35 42 46 96q5 21 5 40q0 87 -81 87q-112 0 -144 -153h-88q47 225 248 225q156 0 156 -140q0 -24 -6 -49q-16 -76 -60 -131q-36 -45 -113 -102l-119 -87q-74 -55 -102 -121h304z"/>
<glyph glyph-name="three" horiz-adv-x="480" unicode="3" d="M251 333l14 66h44q108 0 134 125q5 23 5 43q0 75 -72 75q-102 0 -131 -138h-88q43 204 231 204q149 0 149 -132q0 -72 -38 -128q-41 -60 -110 -76v-2q101 -21 101 -117q0 -22 -5 -48q-22 -100 -83 -158q-66 -61 -165 -61q-164 0 -164 150q0 25 5 47l2 9h88q-5 -21 -5 -41 q0 -99 88 -99q113 0 144 146q5 23 5 43q0 92 -104 92h-45z"/>
<glyph glyph-name="four" horiz-adv-x="480" unicode="4" d="M83 250l353 458h84l-98 -465h80l-16 -72h-80l-36 -171h-84l36 171h-256zM405 570l-247 -327h180l69 327h-2z"/>
<glyph glyph-name="five" horiz-adv-x="480" unicode="5" d="M128 331l117 363h316l-17 -78h-249l-72 -205l2 -2q55 53 135 53q65 0 101.5 -40t36.5 -115q0 -36 -9 -78q-23 -107 -84 -171q-69 -72 -174 -72q-157 0 -157 148q0 24 5 48h88q-4 -19 -4 -38q0 -92 84 -92q116 0 155 184q7 30 7 56q0 104 -91 104q-40 0 -79 -28 q-32 -24 -35 -41z"/>
<glyph glyph-name="six" horiz-adv-x="480" unicode="6" d="M179 216q-7 -33 -7 -61q0 -103 84 -103q60 0 101 54q32 43 46 110q8 38 8 67q0 97 -85 97q-112 0 -147 -164zM543 538h-88q4 15 4 29q0 75 -75 75t-126 -93q-30 -53 -44 -120l-12 -56h2q60 79 152 79q146 0 146 -151q0 -34 -9 -73q-22 -107 -87 -172q-68 -70 -164 -70 q-160 0 -160 173q0 61 21 163q37 171 85 254q77 132 212 132q147 0 147 -131q0 -21 -4 -39z"/>
<glyph glyph-name="seven" horiz-adv-x="480" unicode="7" d="M169 616l17 78h404l-16 -73q-107 -110 -191 -243q-122 -195 -177 -378h-98q113 338 385 616h-324z"/>
<glyph glyph-name="eight" horiz-adv-x="480" unicode="8" d="M167 198q-6 -28 -6 -52q0 -94 90 -94q115 0 146 146q6 28 6 52q0 94 -90 94q-115 0 -146 -146zM376 642q-93 0 -117 -116q-5 -21 -5 -39q0 -77 73 -77q93 0 118 116q4 21 4 39q0 77 -73 77zM78 195q30 141 164 182q-76 34 -76 107q0 20 5 44q18 85 76.5 132.5t142.5 47.5 q71 0 110 -34t39 -96q0 -23 -6 -50q-23 -109 -135 -151q93 -33 93 -127q0 -110 -71.5 -187t-182.5 -77q-165 0 -165 151q0 28 6 58z"/>
<glyph glyph-name="nine" horiz-adv-x="480" unicode="9" d="M449 478q7 33 7 62q0 102 -85 102q-60 0 -100 -54q-32 -43 -46 -110q-9 -38 -9 -68q0 -96 86 -96q112 0 147 164zM84 156h88q-3 -15 -3 -29q0 -75 74 -75q75 0 127 93q29 54 43 120l12 56h-2q-59 -79 -152 -79q-145 0 -145 151q0 34 8 73q23 107 87 172q69 70 164 70 q161 0 161 -174q0 -61 -22 -162q-36 -171 -84 -254q-77 -132 -213 -132q-147 0 -147 131q0 21 4 39z"/>
<glyph glyph-name="colon" horiz-adv-x="240" unicode=":" d="M74 0l23 106h92l-23 -106h-92zM159 400l23 106h92l-23 -106h-92z"/>
<glyph glyph-name="semicolon" horiz-adv-x="240" unicode=";" d="M159 400l23 106h92l-23 -106h-92zM74 0l23 106h92l-19 -87q-15 -70 -36 -103q-30 -48 -91 -64l10 47q48 21 60 77l5 24h-44z"/>
<glyph glyph-name="less" horiz-adv-x="600" unicode="&lt;" d="M94 223l13 60l555 231l-14 -66l-469 -195l386 -195l-14 -66z"/>
<glyph glyph-name="equal" horiz-adv-x="600" unicode="=" d="M72 118l14 66h506l-14 -66h-506zM115 322l14 66h506l-14 -66h-506z"/>
<glyph glyph-name="greater" horiz-adv-x="600" unicode="&gt;" d="M45 -8l14 66l470 195l-387 195l14 66l457 -231l-13 -60z"/>
<glyph glyph-name="question" d="M165 0l20 96h92l-20 -96h-92zM226 504h-84q20 95 77 153q64 65 155 65q74 0 114 -38t40 -102q0 -107 -85 -189q-43 -38 -97 -88q-41 -40 -53 -100l-4 -19h-78q8 42 15 63q12 36 30.5 61t64.5 68q31 29 63 59q38 39 52 102q3 16 3 31q0 80 -77 80q-105 0 -136 -146z" unicode="?"/>
<glyph glyph-name="at" horiz-adv-x="800" unicode="@" d="M628 487l35 63h56l-144 -282q-8 -15 -19 -45q-1 -4 -1 -7q0 -19 25 -19q84 0 154 93q65 87 65 175q0 92 -71.5 147.5t-185.5 55.5q-129 0 -236 -90t-135 -221q-8 -36 -8 -71q0 -106 68 -173t179 -67q189 0 294 111h63q-135 -171 -370 -171q-133 0 -216.5 83t-83.5 210 q0 39 8 78q33 154 164.5 262.5t285.5 108.5q142 0 227 -68t85 -179q0 -30 -7 -62q-26 -123 -128 -206q-94 -76 -190 -76q-58 0 -58 49q0 5 1 10h-2q-70 -59 -138 -59q-48 0 -81 32t-33 84q0 17 4 34q23 109 105 193q88 89 189 89q86 0 97 -82h2zM300 270q0 -33 20.5 -53 t55.5 -20q64 0 129 77q57 69 71 135q2 11 2 23q0 32 -16 54.5t-46 22.5q-72 0 -144 -83t-72 -156z"/>
<glyph glyph-name="A" horiz-adv-x="500" unicode="A" d="M384 613l-172 -345h192l-18 345h-2zM-8 0l358 714h118l40 -714h-92l-9 196h-228l-95 -196h-92z"/>
<glyph glyph-name="B" horiz-adv-x="519" unicode="B" d="M282 642l-50 -236h101q121 0 147 119q4 20 4 36q0 81 -103 81h-99zM58 0l152 714h219q150 0 150 -129q0 -25 -6 -54q-11 -50 -48 -92.5t-88 -56.5v-2q95 -24 95 -124q0 -24 -6 -52q-43 -204 -274 -204h-194zM218 340l-57 -268h120q125 0 153 132q5 21 5 39q0 97 -116 97 h-105z"/>
<glyph glyph-name="C" horiz-adv-x="519" unicode="C" d="M455 245h92q-70 -259 -272 -259q-174 0 -174 193q0 70 23 178q35 165 95 253q80 118 214 118q171 0 171 -153q0 -31 -7 -69h-92q5 30 5 54q0 96 -93 96q-83 0 -133 -88q-37 -65 -68 -211q-24 -113 -24 -174q0 -125 98 -125q72 0 115 61q29 42 50 126z"/>
<glyph glyph-name="D" horiz-adv-x="556" unicode="D" d="M67 0l152 714h191q197 0 197 -185q0 -64 -23 -172q-76 -357 -317 -357h-200zM291 642l-121 -570h92q102 0 162 94q41 65 68 190q21 98 21 150q0 136 -130 136h-92z"/>
<glyph glyph-name="E" horiz-adv-x="463" unicode="E" d="M58 0l152 714h369l-17 -78h-281l-47 -224h265l-17 -78h-265l-54 -256h293l-17 -78h-381z"/>
<glyph glyph-name="F" d="M58 0l152 714h369l-17 -78h-281l-47 -224h265l-17 -78h-265l-71 -334h-88z" unicode="F"/>
<glyph glyph-name="G" horiz-adv-x="537" unicode="G" d="M599 516h-92q3 23 3 42q0 98 -93 98q-83 0 -133 -88q-37 -65 -68 -211q-24 -113 -24 -174q0 -125 98 -125q131 0 183 241h-141l15 72h221l-79 -371h-66l21 97h-2q-25 -48 -72 -78q-50 -33 -106 -33q-163 0 -163 190q0 72 23 181q35 165 95 253q80 118 214 118 q172 0 172 -154q0 -26 -6 -58z"/>
<glyph glyph-name="H" horiz-adv-x="537" unicode="H" d="M631 714l-152 -714h-88l73 344h-245l-73 -344h-88l152 714h88l-62 -292h245l62 292h88z"/>
<glyph glyph-name="I" horiz-adv-x="204" unicode="I" d="M58 0l152 714h88l-152 -714h-88z"/>
<glyph glyph-name="J" horiz-adv-x="426" unicode="J" d="M520 714l-108 -509q-23 -106 -68 -157q-55 -62 -158 -62q-137 0 -137 120q0 20 5 43l12 59h84l-11 -52q-4 -19 -4 -35q0 -63 65 -63q57 0 84 38q23 31 40 112l108 506h88z"/>
<glyph glyph-name="K" horiz-adv-x="500" unicode="K" d="M58 0l152 714h88l-74 -346h2l321 346h98l-280 -298l146 -416h-98l-120 344l-95 -101l-52 -243h-88z"/>
<glyph glyph-name="L" d="M58 0l152 714h88l-135 -636h290l-17 -78h-378z" unicode="L"/>
<glyph glyph-name="M" horiz-adv-x="704" unicode="M" d="M60 0l152 714h148l22 -566h2l264 566h148l-152 -714h-88l133 624h-2l-291 -624h-88l-25 624h-2l-133 -624h-88z"/>
<glyph glyph-name="N" horiz-adv-x="556" unicode="N" d="M58 0l152 714h114l109 -596h2l127 596h88l-152 -714h-121l-106 578h-2l-123 -578h-88z"/>
<glyph glyph-name="O" horiz-adv-x="556" unicode="O" d="M417 656q-83 0 -133 -88q-37 -65 -68 -211q-24 -113 -24 -174q0 -125 98 -125q84 0 134 88q37 65 68 211q24 113 24 174q0 125 -99 125zM433 728q172 0 172 -197q0 -73 -21 -174q-35 -165 -95 -253q-80 -118 -214 -118q-173 0 -173 199q0 70 22 172q35 165 95 253 q80 118 214 118z"/>
<glyph glyph-name="P" horiz-adv-x="481" unicode="P" d="M282 642l-57 -268h105q52 0 91 34q43 37 57 105q5 22 5 41q0 88 -102 88h-99zM58 0l152 714h182q73 0 113 -18q72 -32 72 -123q0 -29 -8 -64q-21 -98 -89 -152.5t-161 -54.5h-109l-64 -302h-88z"/>
<glyph glyph-name="Q" horiz-adv-x="556" unicode="Q" d="M359 75l-56 62l61 54l53 -60q41 66 75 226q24 113 24 174q0 125 -99 125q-83 0 -133 -88q-37 -65 -68 -211q-24 -113 -24 -174q0 -125 98 -125q39 0 69 17zM464 -43l-58 65q-56 -36 -131 -36q-173 0 -173 199q0 70 22 172q35 165 95 253q80 118 214 118q172 0 172 -197 q0 -73 -21 -174q-41 -193 -118 -282l58 -66z"/>
<glyph glyph-name="R" horiz-adv-x="519" unicode="R" d="M282 642l-53 -252h87q63 0 97 17q60 31 79 121q3 15 3 28q0 86 -108 86h-105zM58 0l152 714h231q71 0 110.5 -34t39.5 -97q0 -75 -40 -141q-44 -71 -114 -87v-2q78 -9 78 -94q0 -12 -2 -25l-20 -122q-6 -37 -6 -60q0 -38 20 -52h-106q-8 10 -8 39q0 25 6 64l17 111 q3 17 3 31q0 46 -28 62q-19 11 -58 11h-119l-68 -318h-88z"/>
<glyph glyph-name="S" horiz-adv-x="500" unicode="S" d="M561 529h-88q6 26 6 46q0 81 -90 81q-118 0 -142 -116q-4 -17 -4 -31q0 -60 71 -92l132 -52q71 -39 71 -117q0 -23 -6 -50q-24 -113 -109 -168q-68 -44 -158 -44q-177 0 -177 145q0 39 12 93h88q-11 -50 -11 -77q0 -89 109 -89q54 0 96.5 35t54.5 91q4 17 4 31 q0 60 -71 93q-66 27 -131 54q-71 40 -71 118q0 24 6 51q15 73 63 123q69 74 188 74q164 0 164 -137q0 -28 -7 -62z"/>
<glyph glyph-name="T" horiz-adv-x="463" unicode="T" d="M410 636l-135 -636h-88l135 636h-179l17 78h447l-17 -78h-180z"/>
<glyph glyph-name="U" horiz-adv-x="519" unicode="U" d="M95 212l107 502h88l-107 -502q-8 -37 -8 -64q0 -90 96 -90q68 0 105 40q33 35 50 114l107 502h88l-107 -502q-22 -105 -87 -164q-68 -62 -171 -62q-170 0 -170 149q0 35 9 77z"/>
<glyph glyph-name="V" horiz-adv-x="462" unicode="V" d="M172 0l-22 714h92l9 -613h2l271 613h92l-332 -714h-112z"/>
<glyph glyph-name="W" horiz-adv-x="722" unicode="W" d="M150 0l10 714h88l-15 -584h2l225 584h106l-23 -584h2l233 584h88l-299 -714h-107l25 578h-2l-226 -578h-107z"/>
<glyph glyph-name="X" horiz-adv-x="481" unicode="X" d="M269 363l-101 351h98l73 -267l188 267h92l-253 -351l113 -363h-98l-81 286l-206 -286h-92z"/>
<glyph glyph-name="Y" horiz-adv-x="462" unicode="Y" d="M247 280l-97 434h97l65 -334l212 334h92l-281 -434l-60 -280h-88z"/>
<glyph glyph-name="Z" horiz-adv-x="463" unicode="Z" d="M23 0l16 74l440 562h-303l17 78h395l-17 -81l-439 -555h325l-17 -78h-417z"/>
<glyph glyph-name="bracketleft" horiz-adv-x="259" unicode="[" d="M39 -184l191 898h179l-14 -66h-101l-163 -766h101l-14 -66h-179z"/>
<glyph glyph-name="backslash" horiz-adv-x="278" unicode="\" d="M219 -14l-74 742h66l74 -742h-66z"/>
<glyph glyph-name="bracketright" horiz-adv-x="259" unicode="]" d="M333 714l-191 -898h-179l14 66h101l163 766h-101l14 66h179z"/>
<glyph glyph-name="asciicircum" horiz-adv-x="600" unicode="^" d="M102 261l322 433h48l136 -433h-66l-110 361l-264 -361h-66z"/>
<glyph glyph-name="underscore" horiz-adv-x="500" unicode="_" d="M-27 -125l11 50h500l-11 -50h-500z"/>
<glyph glyph-name="grave" horiz-adv-x="204" unicode="`" d="M144 752h98l40 -142h-60z"/>
<glyph glyph-name="a" d="M334 154l29 138q-21 -19 -76 -35q-65 -19 -80 -28q-47 -25 -59 -85q-4 -19 -4 -34q0 -58 60 -58q42 0 81.5 30.5t48.5 71.5zM205 374h-84q20 92 71.5 134t146.5 42q138 0 138 -96q0 -21 -8 -58l-63 -299q-4 -17 -4 -24q0 -19 20 -19q14 0 22 5l-13 -60q-31 -5 -50 -5 q-30 0 -42 6q-21 10 -21 42q0 10 1 21h-2q-59 -77 -145 -77q-119 0 -119 106q0 23 6 50q25 118 133 148l120 34q45 13 60 31q10 12 18 50q3 12 3 22q0 57 -72 57q-92 0 -114 -105z" unicode="a"/>
<glyph glyph-name="b" horiz-adv-x="463" unicode="b" d="M55 0l152 714h84l-51 -239h2q21 34 60 54.5t80 20.5q119 0 119 -151q0 -55 -16 -131q-26 -123 -83 -198q-64 -84 -152 -84q-42 0 -69.5 24t-29.5 56h-2l-14 -66h-80zM191 268q-14 -66 -14 -109q0 -101 77 -101q98 0 143 210q16 74 16 118q0 92 -69 92q-108 0 -153 -210z "/>
<glyph glyph-name="c" horiz-adv-x="426" unicode="c" d="M473 373h-84q4 19 4 37q0 74 -65 74q-48 0 -80 -37q-44 -52 -72 -185q-16 -73 -16 -113q0 -97 73 -97q88 0 117 134h84q-17 -77 -66 -132q-62 -68 -153 -68q-143 0 -143 153q0 51 15 122q62 289 253 289q139 0 139 -128q0 -24 -6 -49z"/>
<glyph glyph-name="d" horiz-adv-x="463" unicode="d" d="M560 714l-152 -714h-80l14 66h-2q-15 -32 -53 -56t-80 -24q-130 0 -130 157q0 54 15 125q60 282 229 282q37 0 66 -20.5t36 -54.5h2l51 239h84zM180 268q-16 -74 -16 -118q0 -92 69 -92q65 0 102 59q29 47 51 151q13 63 13 106q0 104 -76 104q-56 0 -91 -57 q-30 -49 -52 -153z"/>
<glyph glyph-name="e" d="M462 258h-282q-17 -77 -17 -115q0 -91 76 -91q91 0 117 124h84q-13 -63 -60 -116q-64 -74 -160 -74q-143 0 -143 153q0 51 15 122q62 289 253 289q139 0 139 -141q0 -46 -15 -117zM197 324h191l6 29q6 27 6 49q0 82 -71 82q-57 0 -94 -58q-24 -37 -34 -82z" unicode="e"/>
<glyph glyph-name="f" horiz-adv-x="259" unicode="f" d="M80 0l100 470h-78l14 66h78l13 63q26 123 142 123h61l-15 -72h-39q-54 0 -65 -51l-13 -63h92l-14 -66h-92l-100 -470h-84z"/>
<glyph glyph-name="g" horiz-adv-x="463" unicode="g" d="M522 536l-107 -502q-46 -218 -228 -218q-149 0 -149 114q0 10 1 20h84q-1 -7 -1 -13q0 -55 73 -55q70 0 102 46q17 23 27 74l15 70h-2q-20 -33 -57.5 -52.5t-78.5 -19.5q-122 0 -122 155q0 51 13 113q60 282 235 282q42 0 69.5 -24.5t28.5 -57.5h2l15 68h80zM323 478 q-56 0 -91 -57q-30 -49 -52 -153q-13 -60 -13 -101q0 -95 68 -95q63 0 101 57q30 45 50 139q13 63 13 106q0 104 -76 104z"/>
<glyph glyph-name="h" horiz-adv-x="463" unicode="h" d="M55 0l152 714h84l-51 -239h2q23 32 65.5 53.5t79.5 21.5q112 0 112 -96q0 -26 -10 -74l-81 -380h-84l79 370q6 29 6 47q0 61 -62 61q-40 0 -76 -25q-42 -30 -53 -83l-79 -370h-84z"/>
<glyph glyph-name="i" horiz-adv-x="204" unicode="i" d="M191 618l21 96h84l-21 -96h-84zM60 0l114 536h84l-114 -536h-84z"/>
<glyph glyph-name="j" horiz-adv-x="204" unicode="j" d="M296 714l-21 -96h-84l21 96h84zM258 536l-125 -588q-28 -132 -156 -132l-38 3l15 72q29 -3 30 -3q35 0 51 26q10 17 20 64l119 558h84z"/>
<glyph glyph-name="k" d="M335 334l120 -334h-98l-93 265l-87 -84l-38 -181h-84l152 714h84l-91 -425h2l241 247h98z" unicode="k"/>
<glyph glyph-name="l" horiz-adv-x="204" unicode="l" d="M60 0l152 714h84l-152 -714h-84z"/>
<glyph glyph-name="m" horiz-adv-x="722" unicode="m" d="M63 0l114 536h80l-13 -63h2q23 36 64 56.5t82 20.5q92 0 98 -85q61 85 145 85q115 0 115 -97q0 -25 -10 -73l-81 -380h-84l79 370q6 31 6 50q0 58 -55 58q-38 0 -70 -22q-41 -30 -53 -86l-79 -370h-84l79 370q6 31 6 50q0 58 -55 58q-38 0 -70 -22q-41 -30 -53 -86 l-79 -370h-84z"/>
<glyph glyph-name="n" horiz-adv-x="463" unicode="n" d="M55 0l114 536h80l-13 -63h2q23 36 64 56.5t82 20.5q115 0 115 -97q0 -25 -10 -73l-81 -380h-84l79 370q6 29 6 47q0 61 -62 61q-40 0 -76 -25q-42 -30 -53 -83l-79 -370h-84z"/>
<glyph glyph-name="o" d="M231 52q107 0 153 216q15 72 15 116q0 100 -76 100q-103 0 -149 -216q-15 -73 -15 -118q0 -98 72 -98zM86 268q60 282 253 282q148 0 148 -161q0 -52 -15 -121q-60 -282 -253 -282q-148 0 -148 161q0 51 15 121z" unicode="o"/>
<glyph glyph-name="p" horiz-adv-x="463" unicode="p" d="M18 -176l151 712h80l-14 -66h2q15 32 53 56t80 24q131 0 131 -157q0 -50 -14 -115q-24 -114 -76 -192q-67 -100 -161 -100q-36 0 -62.5 20.5t-33.5 54.5h-2l-50 -237h-84zM191 268q-13 -63 -13 -106q0 -104 76 -104q56 0 91 58q30 51 54 162q14 66 14 108q0 92 -69 92 q-65 0 -102 -59q-29 -47 -51 -151z"/>
<glyph glyph-name="q" horiz-adv-x="463" unicode="q" d="M287 -176l50 237h-2q-47 -75 -128 -75q-128 0 -128 163q0 56 15 129q58 272 233 272q42 0 69.5 -24t29.5 -56h2l14 66h80l-151 -712h-84zM386 268q16 75 16 117q0 93 -79 93q-98 0 -141 -200q-17 -81 -17 -128q0 -92 68 -92q108 0 153 210z"/>
<glyph glyph-name="r" horiz-adv-x="296" unicode="r" d="M55 0l114 536h84l-17 -80h2q64 94 136 94q25 0 36 -6l-18 -82q-31 4 -44 4q-38 0 -77 -30q-47 -37 -60 -97l-72 -339h-84z"/>
<glyph glyph-name="s" horiz-adv-x="407" unicode="s" d="M450 379h-84q5 27 5 46q0 59 -62 59q-87 0 -105 -82q-1 -8 -1 -16q0 -32 35 -51q9 -5 78 -30q51 -19 71 -35q33 -27 33 -75q0 -18 -5 -41q-18 -82 -74.5 -125t-134.5 -43q-152 0 -152 123q0 27 8 67h84q-5 -28 -5 -48q0 -76 79 -76q31 0 58 16q39 23 50 73q2 11 2 21 q0 35 -35 57q-14 9 -75 31q-53 20 -72 34q-33 26 -33 75q0 19 5 43q16 72 75 111q54 37 128 37q134 0 134 -108q0 -24 -7 -63z"/>
<glyph glyph-name="t" horiz-adv-x="259" unicode="t" d="M194 536l33 156h84l-33 -156h93l-14 -66h-93l-73 -344q-4 -16 -4 -27q0 -33 46 -33q10 0 38 3l-15 -69q-34 -6 -69 -6q-91 0 -91 64q0 17 5 42l79 370h-78l14 66h78z"/>
<glyph glyph-name="u" horiz-adv-x="463" unicode="u" d="M522 536l-114 -536h-80l13 63h-2q-23 -36 -64 -56.5t-82 -20.5q-115 0 -115 97q0 25 10 73l81 380h84l-79 -370q-6 -29 -6 -47q0 -61 62 -61q40 0 75 25q43 30 54 83l79 370h84z"/>
<glyph glyph-name="v" horiz-adv-x="406" unicode="v" d="M155 0l-31 536h92l9 -430h2l191 430h92l-259 -536h-96z"/>
<glyph glyph-name="w" horiz-adv-x="648" unicode="w" d="M135 0l-11 536h88l-7 -438h2l184 438h99l-4 -438h2l176 438h88l-241 -536h-92l-1 438h-2l-183 -438h-98z"/>
<glyph glyph-name="x" horiz-adv-x="406" unicode="x" d="M212 279l-82 257h92l56 -191l139 191h92l-195 -257l86 -279h-92l-62 212l-148 -212h-92z"/>
<glyph glyph-name="y" horiz-adv-x="406" unicode="y" d="M166 -11l-42 547h92l15 -430h2l185 430h92l-277 -572q-34 -70 -62 -98q-42 -42 -110 -42q-19 0 -61 3l14 66q18 -3 49 -3q48 0 77 52z"/>
<glyph glyph-name="z" horiz-adv-x="389" unicode="z" d="M138 464l15 72h323l-15 -70l-324 -394h238l-15 -72h-333l14 66l328 398h-231z"/>
<glyph glyph-name="braceleft" horiz-adv-x="259" unicode="{" d="M52 235l13 60q33 0 60.5 30t38.5 81l38 178q28 130 136 130h71l-14 -66h-51q-33 0 -49 -27q-11 -17 -19 -55l-36 -172q-14 -63 -57 -99q-30 -25 -58 -29l-1 -2q21 -3 39 -21q26 -26 26 -70q0 -17 -4 -37l-37 -172q-6 -29 -6 -43q0 -39 39 -39h51l-14 -66h-71 q-86 0 -86 85q0 20 6 45l37 178q5 21 5 39q0 72 -57 72z"/>
<glyph glyph-name="bar" horiz-adv-x="222" unicode="|" d="M75 -14l158 742h66l-158 -742h-66z"/>
<glyph glyph-name="braceright" horiz-adv-x="259" unicode="}" d="M320 295l-13 -60q-34 0 -61.5 -30t-38.5 -81l-37 -178q-28 -130 -136 -130h-71l14 66h51q32 0 49 27q10 17 18 55l37 172q13 63 57 99q30 25 58 29l1 2q-22 3 -40 21q-25 26 -25 70q0 17 4 37l36 172q6 29 6 43q0 39 -38 39h-51l14 66h71q85 0 85 -85q0 -20 -5 -45 l-38 -178q-4 -21 -4 -39q0 -72 57 -72z"/>
<glyph glyph-name="asciitilde" horiz-adv-x="600" unicode="~" d="M137 185l-32 46q86 93 156 93q51 0 98 -29q22 -15 45 -30q28 -17 52 -17q50 0 114 73l33 -45q-86 -94 -156 -94q-51 0 -98 29l-46 30q-28 17 -51 17q-50 0 -115 -73z"/>
<glyph glyph-name="nonbreakingspace" horiz-adv-x="240" unicode=" "/>
<glyph glyph-name="exclamdown" horiz-adv-x="258" unicode="¡" d="M289 538l-20 -96h-92l20 96h92zM234 352l-96 -528h-92l128 528h60z"/>
<glyph glyph-name="cent" horiz-adv-x="480" unicode="¢" d="M206 -99l18 85q-125 7 -125 152q0 51 15 123q58 273 230 289l15 70h42l-15 -70q120 -8 120 -127q0 -24 -6 -50h-84q5 21 5 39q0 63 -49 72l-92 -432q71 16 97 134h84q-16 -73 -60 -126q-55 -66 -135 -74l-18 -85h-42zM238 52l92 432q-84 -19 -127 -222q-16 -75 -16 -116 q0 -82 51 -94z"/>
<glyph glyph-name="sterling" horiz-adv-x="480" unicode="£" d="M554 505h-84q6 26 6 47q0 90 -91 90q-58 0 -96 -35q-30 -29 -39 -70q-3 -12 -3 -28q0 -41 26 -127h164l-13 -60h-142q6 -20 6 -40q0 -14 -3 -28q-11 -53 -63 -104q-33 -33 -104 -83l2 -2q62 28 91 28q24 0 59 -14.5t61 -14.5q37 0 115 39l23 -67q-82 -50 -149 -50 q-35 0 -84 20.5t-77 20.5q-26 0 -52 -11l-51 -22l-24 65q70 49 101 80q50 50 62 106q4 18 4 34q0 24 -9 43h-95l13 60h70l-9 31q-13 41 -13 77q0 20 4 38q18 84 87 133q65 47 152 47q162 0 162 -143q0 -27 -7 -60z"/>
<glyph glyph-name="currency" horiz-adv-x="480" unicode="¤" d="M53 167l57 47q-21 40 -21 88q0 97 78 177l-37 47l52 43l37 -47q67 45 142 45q74 0 122 -45l57 47l34 -43l-57 -47q22 -38 22 -86q0 -100 -79 -178l37 -48l-50 -42l-38 48q-67 -46 -142 -46q-74 0 -123 45l-57 -47zM166 347q-4 -18 -4 -35q0 -52 33 -85.5t86 -33.5 q62 0 114.5 44.5t66.5 109.5q4 18 4 35q0 52 -33.5 85.5t-86.5 33.5q-61 0 -113.5 -44.5t-66.5 -109.5z"/>
<glyph glyph-name="yen" horiz-adv-x="480" unicode="¥" d="M200 0l33 153h-147l12 60h147l13 60l-5 22h-137l12 60h110l-81 339h97l67 -324l210 324h88l-223 -339h110l-12 -60h-137l-15 -22l-13 -60h147l-12 -60h-147l-33 -153h-84z"/>
<glyph glyph-name="brokenbar" horiz-adv-x="222" unicode="¦" d="M170 434l63 294h66l-63 -294h-66zM75 -14l63 294h66l-63 -294h-66z"/>
<glyph glyph-name="section" horiz-adv-x="482" unicode="§" d="M236 245l57 -42l51 -41q66 35 79 95q1 8 1 17q0 44 -57 85l-95 68q-89 -57 -89 -109q0 -34 53 -73zM536 578h-88q2 11 2 20q0 64 -72 64q-39 0 -71 -26t-32 -63q0 -39 62 -81l87 -60q89 -62 89 -128q0 -15 -3 -32q-18 -86 -120 -147q36 -26 36 -84q0 -19 -5 -40 q-15 -72 -77 -115q-57 -40 -130 -40q-150 0 -150 131q0 21 4 43h84q-3 -17 -3 -31q0 -77 79 -77q48 0 78 32q20 23 26 53q2 9 2 17q0 46 -62 90l-98 70q-79 56 -79 122q0 12 3 24q11 50 46 85q25 25 82 57q-41 31 -41 92q0 14 3 28q14 69 77 109q56 37 127 37 q146 0 146 -117q0 -13 -2 -33z"/>
<glyph glyph-name="dieresis" horiz-adv-x="204" unicode="¨" d="M279 634l21 101h78l-21 -101h-78zM117 634l21 101h78l-21 -101h-78z"/>
<glyph glyph-name="copyright" horiz-adv-x="800" unicode="©" d="M410 46q126 0 234.5 91t136.5 220q7 34 7 67q0 105 -68.5 174.5t-177.5 69.5q-127 0 -235.5 -91t-135.5 -220q-7 -34 -7 -67q0 -105 68.5 -174.5t177.5 -69.5zM105 357q33 154 164.5 262.5t285.5 108.5q132 0 216 -83t84 -210q0 -39 -8 -78q-33 -154 -164.5 -262.5 t-285.5 -108.5q-133 0 -216.5 83t-83.5 210q0 39 8 78zM602 279h60q-26 -74 -91 -116q-61 -39 -139 -39q-84 0 -130.5 45.5t-46.5 123.5q0 29 7 61q22 103 94.5 166.5t173.5 63.5q78 0 122 -38q43 -37 43 -101q0 -8 -1 -16h-60q0 41 -30 67q-33 28 -87 28q-68 0 -120.5 -49 t-68.5 -121q-5 -23 -5 -44q0 -56 32.5 -91t89.5 -35q54 0 97 27t60 68z"/>
<glyph glyph-name="ordfeminine" horiz-adv-x="289" unicode="ª" d="M291 470l16 77q-13 -11 -49 -21q-40 -10 -52 -17q-27 -16 -33 -45q-2 -8 -2 -15q0 -34 37 -34q27 0 53 17.5t30 37.5zM381 612l-37 -176q-2 -7 -2 -12q0 -15 13 -15q7 0 14 3l-9 -42q-13 -3 -39 -3q-41 0 -41 34q0 6 1 12h-2q-35 -46 -98 -46q-78 0 -78 69q0 11 3 24 q15 72 91 92l78 20q27 7 37 18q6 7 10 27q1 6 1 11q0 32 -46 32q-59 0 -71 -58l-1 -4h-60q13 59 47 84.5t103 25.5q91 0 91 -61q0 -13 -5 -35z"/>
<glyph glyph-name="guillemotleft" horiz-adv-x="389" unicode="«" d="M101 245l17 78l172 143l-19 -88l-114 -94l74 -94l-18 -88zM250 245l17 78l172 143l-19 -88l-114 -94l74 -94l-18 -88z"/>
<glyph glyph-name="logicalnot" horiz-adv-x="600" unicode="¬" d="M510 106l45 216h-440l14 66h506l-59 -282h-66z"/>
<glyph glyph-name="uni00AD" horiz-adv-x="600" unicode="­" d="M94 220l14 66h506l-14 -66h-506z"/>
<glyph glyph-name="registered" horiz-adv-x="800" unicode="®" d="M410 46q126 0 234.5 91t136.5 220q7 34 7 67q0 105 -68.5 174.5t-177.5 69.5q-127 0 -235.5 -91t-135.5 -220q-7 -34 -7 -67q0 -105 68.5 -174.5t177.5 -69.5zM105 357q33 154 164.5 262.5t285.5 108.5q132 0 216 -83t84 -210q0 -39 -8 -78q-33 -154 -164.5 -262.5 t-285.5 -108.5q-133 0 -216.5 83t-83.5 210q0 39 8 78zM399 380h71q56 0 81 10q37 14 46 58q2 9 2 17q0 47 -82 47h-90zM281 138l93 434h168q125 0 125 -91q0 -17 -4 -36q-23 -108 -143 -120l84 -187h-66l-81 182h-71l-39 -182h-66z"/>
<glyph glyph-name="macron" horiz-adv-x="204" unicode="¯" d="M109 655l12 54h264l-12 -54h-264z"/>
<glyph glyph-name="degree" horiz-adv-x="400" unicode="°" d="M222 540q0 -33 21.5 -54.5t55.5 -21.5q44 0 80.5 35t36.5 79q0 33 -21.5 54.5t-55.5 21.5q-45 0 -81 -35t-36 -79zM170 559q14 65 65 107t115 42q56 0 89 -31.5t33 -83.5q0 -16 -4 -34q-14 -64 -65 -106.5t-116 -42.5q-55 0 -88 31.5t-33 83.5q0 16 4 34z"/>
<glyph glyph-name="plusminus" horiz-adv-x="600" unicode="±" d="M47 0l14 66h506l-14 -66h-506zM110 295l14 66h220l31 145h66l-31 -145h220l-14 -66h-220l-31 -145h-66l31 145h-220z"/>
<glyph glyph-name="twosuperior" horiz-adv-x="312" unicode="²" d="M342 280h-261q19 94 137 175l43 30q73 50 84 103q2 9 2 17q0 43 -55 43q-62 0 -78 -76h-72q28 136 167 136q112 0 112 -86q0 -13 -3 -28q-10 -46 -38 -80q-22 -26 -73 -61l-72 -50q-41 -28 -61 -63h180z"/>
<glyph glyph-name="threesuperior" horiz-adv-x="312" unicode="³" d="M217 474l11 54h24q37 0 63 24t26 60q0 42 -45 42q-62 0 -77 -69h-72q26 123 162 123q105 0 105 -82q0 -47 -29.5 -79.5t-77.5 -41.5v-2q78 -13 78 -75q0 -11 -3 -24q-28 -131 -164 -131q-121 0 -121 97q0 12 2 21l1 5h72q-1 -8 -1 -16q0 -53 57 -53q66 0 81 73q2 11 2 20 q0 54 -66 54h-28z"/>
<glyph glyph-name="acute" horiz-adv-x="204" unicode="´" d="M182 610l100 142h98l-138 -142h-60z"/>
<glyph glyph-name="mu" horiz-adv-x="463" unicode="µ" d="M522 536l-114 -536h-80l13 63h-2q-23 -36 -64 -56.5t-82 -20.5q-39 0 -54 14l-37 -176h-84l151 712h84l-79 -370q-6 -29 -6 -47q0 -61 62 -61q40 0 75 25q43 30 54 83l79 370h84z"/>
<glyph glyph-name="paragraph" horiz-adv-x="556" unicode="¶" d="M381 -140l170 800h-100l-170 -800h-66l98 462q-79 0 -126 41.5t-47 106.5q0 19 4 38q20 96 98 152q75 54 182 54h205l-182 -854h-66z"/>
<glyph glyph-name="cedilla" horiz-adv-x="204" unicode="¸" d="M-42 -192l22 34q34 -12 62 -12q55 0 64 41q3 17 -9 27t-31 10q-28 0 -39 -7l-11 18l77 87h42l-53 -60l1 -2q15 6 31 6q26 0 45 -13q21 -16 21 -45q0 -9 -2 -18q-8 -37 -45 -61.5t-80 -24.5q-65 0 -95 20z"/>
<glyph glyph-name="onesuperior" horiz-adv-x="312" unicode="¹" d="M188 280l66 313h-96l10 48q111 0 127 67h49l-90 -428h-66z"/>
<glyph glyph-name="ordmasculine" horiz-adv-x="289" unicode="º" d="M231 415q64 0 91 124q7 35 7 59q0 62 -46 62q-60 0 -86 -121q-8 -37 -8 -63q0 -61 42 -61zM293 708q102 0 102 -103q0 -29 -7 -66q-37 -172 -167 -172q-99 0 -99 103q0 30 9 69q35 169 162 169z"/>
<glyph glyph-name="guillemotright" horiz-adv-x="389" unicode="»" d="M260 323l-17 -78l-172 -143l18 88l114 94l-74 94l19 88zM409 323l-17 -78l-172 -143l18 88l114 94l-74 94l19 88z"/>
<glyph glyph-name="onequarter" horiz-adv-x="721" unicode="¼" d="M158 593l10 48q111 0 127 67h49l-90 -428h-66l66 313h-96zM86 -31l595 756h60l-595 -756h-60zM434 159l217 269h72l-58 -275h47l-12 -54h-47l-21 -99h-66l21 99h-166zM487 153h112l39 185h-2z"/>
<glyph glyph-name="onehalf" horiz-adv-x="721" unicode="½" d="M681 0h-261q20 94 137 175l44 30q72 50 83 103q2 9 2 17q0 43 -55 43q-62 0 -78 -76h-72q29 136 168 136q112 0 112 -86q0 -13 -3 -28q-10 -46 -38 -80q-23 -26 -73 -61l-73 -50q-41 -28 -60 -63h180zM156 593l10 48q111 0 127 67h49l-90 -428h-66l66 313h-96zM67 -31 l595 756h60l-595 -756h-60z"/>
<glyph glyph-name="threequarters" horiz-adv-x="721" unicode="¾" d="M221 474l11 54h24q37 0 63 24t26 60q0 42 -45 42q-62 0 -77 -69h-72q26 123 162 123q105 0 105 -82q0 -47 -29.5 -79.5t-77.5 -41.5v-2q78 -13 78 -75q0 -11 -3 -24q-28 -131 -164 -131q-121 0 -121 97q0 12 2 21l1 5h72q-1 -8 -1 -16q0 -53 57 -53q66 0 81 73q2 11 2 20 q0 54 -66 54h-28zM138 -31l595 756h60l-595 -756h-60zM456 159l217 269h72l-58 -275h47l-12 -54h-47l-21 -99h-66l21 99h-166zM509 153h112l39 185h-2z"/>
<glyph glyph-name="questiondown" d="M393 538l-20 -96h-92l20 96h92zM332 34h84q-20 -95 -77 -153q-63 -65 -155 -65q-74 0 -113.5 38t-39.5 102q0 107 85 189q43 38 97 88q40 40 53 100l4 19h78q-9 -42 -16 -63q-12 -36 -29 -60q-20 -26 -65 -69q-32 -29 -64 -59q-38 -39 -51 -102q-4 -16 -4 -31 q0 -80 77 -80q105 0 136 146z" unicode="¿"/>
<glyph glyph-name="Agrave" horiz-adv-x="500" unicode="À" d="M384 613l-172 -345h192l-18 345h-2zM-8 0l358 714h118l40 -714h-92l-9 196h-228l-95 -196h-92zM329 895h98l40 -142h-60z"/>
<glyph glyph-name="Aacute" horiz-adv-x="500" unicode="Á" d="M384 613l-172 -345h192l-18 345h-2zM-8 0l358 714h118l40 -714h-92l-9 196h-228l-95 -196h-92zM367 753l100 142h98l-138 -142h-60z"/>
<glyph glyph-name="Acircumflex" horiz-adv-x="500" unicode="Â" d="M384 613l-172 -345h192l-18 345h-2zM-8 0l358 714h118l40 -714h-92l-9 196h-228l-95 -196h-92zM278 753l131 142h77l70 -142h-78l-43 88l-79 -88h-78z"/>
<glyph glyph-name="Atilde" horiz-adv-x="500" unicode="Ã" d="M384 613l-172 -345h192l-18 345h-2zM-8 0l358 714h118l40 -714h-92l-9 196h-228l-95 -196h-92zM537 883h54q-9 -42 -37 -74q-32 -37 -72 -37q-24 0 -61.5 19t-45.5 19q-32 0 -49 -45h-54q10 45 44 78t73 33q20 0 55.5 -19t48.5 -19q25 0 44 45z"/>
<glyph glyph-name="Adieresis" horiz-adv-x="500" unicode="Ä" d="M384 613l-172 -345h192l-18 345h-2zM-8 0l358 714h118l40 -714h-92l-9 196h-228l-95 -196h-92zM464 777l21 101h78l-21 -101h-78zM302 777l21 101h78l-21 -101h-78z"/>
<glyph glyph-name="Aring" horiz-adv-x="500" unicode="Å" d="M384 613l-172 -345h192l-18 345h-2zM-8 0l358 714h118l40 -714h-92l-9 196h-228l-95 -196h-92zM375 821q0 -19 13 -32t34 -13q26 0 48 21t22 48q0 19 -13 32t-33 13q-27 0 -49 -21t-22 -48zM455 932q35 0 57.5 -22t22.5 -56q0 -47 -37.5 -83.5t-84.5 -36.5 q-36 0 -58.5 22t-22.5 56q0 47 38 83.5t85 36.5z"/>
<glyph glyph-name="AE" horiz-adv-x="722" unicode="Æ" d="M-8 0l428 714h418l-17 -78h-266l-47 -224h250l-17 -78h-250l-54 -256h278l-17 -78h-366l42 196h-175l-115 -196h-92zM458 642l-219 -374h150l79 374h-10z"/>
<glyph glyph-name="Ccedilla" horiz-adv-x="519" unicode="Ç" d="M181 -81l60 69q-140 18 -140 192q0 70 23 177q35 165 95 253q80 118 214 118q171 0 171 -153q0 -31 -7 -69h-92q5 30 5 54q0 96 -93 96q-83 0 -133 -88q-37 -65 -68 -211q-24 -113 -24 -174q0 -125 98 -125q72 0 115 61q29 42 50 126h92q-69 -255 -265 -259l-35 -40l1 -2 q15 6 31 6q26 0 45 -13q21 -16 21 -45q0 -9 -2 -18q-8 -37 -45 -61.5t-80 -24.5q-65 0 -95 20l22 34q34 -12 62 -12q55 0 64 41q3 17 -9 27t-31 10q-28 0 -39 -7z"/>
<glyph glyph-name="Egrave" horiz-adv-x="463" unicode="È" d="M58 0l152 714h369l-17 -78h-281l-47 -224h265l-17 -78h-265l-54 -256h293l-17 -78h-381zM316 895h98l40 -142h-60z"/>
<glyph glyph-name="Eacute" horiz-adv-x="463" unicode="É" d="M58 0l152 714h369l-17 -78h-281l-47 -224h265l-17 -78h-265l-54 -256h293l-17 -78h-381zM354 753l100 142h98l-138 -142h-60z"/>
<glyph glyph-name="Ecircumflex" horiz-adv-x="463" unicode="Ê" d="M58 0l152 714h369l-17 -78h-281l-47 -224h265l-17 -78h-265l-54 -256h293l-17 -78h-381zM265 753l131 142h77l70 -142h-78l-43 88l-79 -88h-78z"/>
<glyph glyph-name="Edieresis" horiz-adv-x="463" unicode="Ë" d="M58 0l152 714h369l-17 -78h-281l-47 -224h265l-17 -78h-265l-54 -256h293l-17 -78h-381zM451 777l21 101h78l-21 -101h-78zM289 777l21 101h78l-21 -101h-78z"/>
<glyph glyph-name="Igrave" horiz-adv-x="204" unicode="Ì" d="M58 0l152 714h88l-152 -714h-88zM174 895h98l40 -142h-60z"/>
<glyph glyph-name="Iacute" horiz-adv-x="204" unicode="Í" d="M58 0l152 714h88l-152 -714h-88zM212 753l100 142h98l-138 -142h-60z"/>
<glyph glyph-name="Icircumflex" horiz-adv-x="204" unicode="Î" d="M58 0l152 714h88l-152 -714h-88zM123 753l131 142h77l70 -142h-78l-43 88l-79 -88h-78z"/>
<glyph glyph-name="Idieresis" horiz-adv-x="204" unicode="Ï" d="M58 0l152 714h88l-152 -714h-88zM309 777l21 101h78l-21 -101h-78zM147 777l21 101h78l-21 -101h-78z"/>
<glyph glyph-name="Eth" horiz-adv-x="556" unicode="Ð" d="M170 72h92q102 0 162 94q41 65 68 190q21 98 21 150q0 136 -130 136h-92l-50 -236h134l-14 -66h-134zM67 0l72 340h-58l14 66h58l66 308h191q197 0 197 -185q0 -64 -23 -172q-76 -357 -317 -357h-200z"/>
<glyph glyph-name="Ntilde" horiz-adv-x="556" unicode="Ñ" d="M58 0l152 714h114l109 -596h2l127 596h88l-152 -714h-121l-106 578h-2l-123 -578h-88zM558 883h54q-9 -42 -37 -74q-32 -37 -72 -37q-24 0 -61.5 19t-45.5 19q-32 0 -49 -45h-54q10 45 44 78t73 33q20 0 55.5 -19t48.5 -19q25 0 44 45z"/>
<glyph glyph-name="Ograve" horiz-adv-x="556" unicode="Ò" d="M417 656q-83 0 -133 -88q-37 -65 -68 -211q-24 -113 -24 -174q0 -125 98 -125q84 0 134 88q37 65 68 211q24 113 24 174q0 125 -99 125zM433 728q172 0 172 -197q0 -73 -21 -174q-35 -165 -95 -253q-80 -118 -214 -118q-173 0 -173 199q0 70 22 172q35 165 95 253 q80 118 214 118zM350 895h98l40 -142h-60z"/>
<glyph glyph-name="Oacute" horiz-adv-x="556" unicode="Ó" d="M417 656q-83 0 -133 -88q-37 -65 -68 -211q-24 -113 -24 -174q0 -125 98 -125q84 0 134 88q37 65 68 211q24 113 24 174q0 125 -99 125zM433 728q172 0 172 -197q0 -73 -21 -174q-35 -165 -95 -253q-80 -118 -214 -118q-173 0 -173 199q0 70 22 172q35 165 95 253 q80 118 214 118zM388 753l100 142h98l-138 -142h-60z"/>
<glyph glyph-name="Ocircumflex" horiz-adv-x="556" unicode="Ô" d="M417 656q-83 0 -133 -88q-37 -65 -68 -211q-24 -113 -24 -174q0 -125 98 -125q84 0 134 88q37 65 68 211q24 113 24 174q0 125 -99 125zM433 728q172 0 172 -197q0 -73 -21 -174q-35 -165 -95 -253q-80 -118 -214 -118q-173 0 -173 199q0 70 22 172q35 165 95 253 q80 118 214 118zM299 753l131 142h77l70 -142h-78l-43 88l-79 -88h-78z"/>
<glyph glyph-name="Otilde" horiz-adv-x="556" unicode="Õ" d="M417 656q-83 0 -133 -88q-37 -65 -68 -211q-24 -113 -24 -174q0 -125 98 -125q84 0 134 88q37 65 68 211q24 113 24 174q0 125 -99 125zM433 728q172 0 172 -197q0 -73 -21 -174q-35 -165 -95 -253q-80 -118 -214 -118q-173 0 -173 199q0 70 22 172q35 165 95 253 q80 118 214 118zM558 883h54q-9 -42 -37 -74q-32 -37 -72 -37q-24 0 -61.5 19t-45.5 19q-32 0 -49 -45h-54q10 45 44 78t73 33q20 0 55.5 -19t48.5 -19q25 0 44 45z"/>
<glyph glyph-name="Odieresis" horiz-adv-x="556" unicode="Ö" d="M417 656q-83 0 -133 -88q-37 -65 -68 -211q-24 -113 -24 -174q0 -125 98 -125q84 0 134 88q37 65 68 211q24 113 24 174q0 125 -99 125zM433 728q172 0 172 -197q0 -73 -21 -174q-35 -165 -95 -253q-80 -118 -214 -118q-173 0 -173 199q0 70 22 172q35 165 95 253 q80 118 214 118zM485 777l21 101h78l-21 -101h-78zM323 777l21 101h78l-21 -101h-78z"/>
<glyph glyph-name="multiply" horiz-adv-x="600" unicode="×" d="M486 30l-141 180l-220 -180l-33 42l220 181l-143 181l51 42l143 -180l218 180l34 -42l-219 -181l142 -181z"/>
<glyph glyph-name="Oslash" horiz-adv-x="556" unicode="Ø" d="M83 -24l50 80q-30 48 -30 132q0 69 21 169q35 165 95 253q80 118 214 118q66 0 105 -28l36 59l50 -22l-49 -77q31 -48 31 -131q0 -70 -22 -172q-35 -165 -95 -253q-80 -118 -214 -118q-65 0 -104 28l-39 -62zM514 562l-296 -474q23 -30 72 -30q84 0 134 88q37 65 68 211 q24 113 24 175q0 16 -2 30zM194 153l297 473q-24 30 -74 30q-83 0 -133 -88q-37 -65 -68 -211q-24 -112 -24 -174q0 -16 2 -30z"/>
<glyph glyph-name="Ugrave" horiz-adv-x="519" unicode="Ù" d="M95 212l107 502h88l-107 -502q-8 -37 -8 -64q0 -90 96 -90q68 0 105 40q33 35 50 114l107 502h88l-107 -502q-22 -105 -87 -164q-68 -62 -171 -62q-170 0 -170 149q0 35 9 77zM332 895h98l40 -142h-60z"/>
<glyph glyph-name="Uacute" horiz-adv-x="519" unicode="Ú" d="M95 212l107 502h88l-107 -502q-8 -37 -8 -64q0 -90 96 -90q68 0 105 40q33 35 50 114l107 502h88l-107 -502q-22 -105 -87 -164q-68 -62 -171 -62q-170 0 -170 149q0 35 9 77zM370 753l100 142h98l-138 -142h-60z"/>
<glyph glyph-name="Ucircumflex" horiz-adv-x="519" unicode="Û" d="M95 212l107 502h88l-107 -502q-8 -37 -8 -64q0 -90 96 -90q68 0 105 40q33 35 50 114l107 502h88l-107 -502q-22 -105 -87 -164q-68 -62 -171 -62q-170 0 -170 149q0 35 9 77zM281 753l131 142h77l70 -142h-78l-43 88l-79 -88h-78z"/>
<glyph glyph-name="Udieresis" horiz-adv-x="519" unicode="Ü" d="M95 212l107 502h88l-107 -502q-8 -37 -8 -64q0 -90 96 -90q68 0 105 40q33 35 50 114l107 502h88l-107 -502q-22 -105 -87 -164q-68 -62 -171 -62q-170 0 -170 149q0 35 9 77zM467 777l21 101h78l-21 -101h-78zM305 777l21 101h78l-21 -101h-78z"/>
<glyph glyph-name="Yacute" horiz-adv-x="462" unicode="Ý" d="M247 280l-97 434h97l65 -334l212 334h92l-281 -434l-60 -280h-88zM341 753l100 142h98l-138 -142h-60z"/>
<glyph glyph-name="Thorn" horiz-adv-x="481" unicode="Þ" d="M253 502l-57 -268h105q51 0 90 34q43 37 57 105q5 22 5 41q0 88 -101 88h-99zM58 0l152 714h88l-30 -140h94q74 0 113 -18q72 -32 72 -123q0 -29 -8 -64q-20 -98 -88.5 -152.5t-161.5 -54.5h-109l-34 -162h-88z"/>
<glyph glyph-name="germandbls" horiz-adv-x="463" unicode="ß" d="M48 0l109 511q21 102 68 152q55 59 153 59q65 0 102 -29q41 -31 41 -90q0 -66 -39 -121q-41 -59 -103 -70l-1 -2q55 0 84 -36q26 -34 26 -91q0 -104 -63 -190q-70 -93 -170 -93h-59l15 72h58q50 0 86 55q27 40 39 97q5 28 5 52q0 98 -81 98q-25 0 -40 -3l15 69h20 q40 0 72.5 27.5t43.5 77.5q4 21 4 39q0 72 -69 72q-58 0 -87 -41q-20 -28 -33 -90l-112 -525h-84z"/>
<glyph glyph-name="agrave" d="M334 154l29 138q-21 -19 -76 -35q-65 -19 -80 -28q-47 -25 -59 -85q-4 -19 -4 -34q0 -58 60 -58q42 0 81.5 30.5t48.5 71.5zM205 374h-84q20 92 71.5 134t146.5 42q138 0 138 -96q0 -21 -8 -58l-63 -299q-4 -17 -4 -24q0 -19 20 -19q14 0 22 5l-13 -60q-31 -5 -50 -5 q-30 0 -42 6q-21 10 -21 42q0 10 1 21h-2q-59 -77 -145 -77q-119 0 -119 106q0 23 6 50q25 118 133 148l120 34q45 13 60 31q10 12 18 50q3 12 3 22q0 57 -72 57q-92 0 -114 -105zM264 752h98l40 -142h-60z" unicode="à"/>
<glyph glyph-name="aacute" d="M334 154l29 138q-21 -19 -76 -35q-65 -19 -80 -28q-47 -25 -59 -85q-4 -19 -4 -34q0 -58 60 -58q42 0 81.5 30.5t48.5 71.5zM205 374h-84q20 92 71.5 134t146.5 42q138 0 138 -96q0 -21 -8 -58l-63 -299q-4 -17 -4 -24q0 -19 20 -19q14 0 22 5l-13 -60q-31 -5 -50 -5 q-30 0 -42 6q-21 10 -21 42q0 10 1 21h-2q-59 -77 -145 -77q-119 0 -119 106q0 23 6 50q25 118 133 148l120 34q45 13 60 31q10 12 18 50q3 12 3 22q0 57 -72 57q-92 0 -114 -105zM302 610l100 142h98l-138 -142h-60z" unicode="á"/>
<glyph glyph-name="acircumflex" d="M334 154l29 138q-21 -19 -76 -35q-65 -19 -80 -28q-47 -25 -59 -85q-4 -19 -4 -34q0 -58 60 -58q42 0 81.5 30.5t48.5 71.5zM205 374h-84q20 92 71.5 134t146.5 42q138 0 138 -96q0 -21 -8 -58l-63 -299q-4 -17 -4 -24q0 -19 20 -19q14 0 22 5l-13 -60q-31 -5 -50 -5 q-30 0 -42 6q-21 10 -21 42q0 10 1 21h-2q-59 -77 -145 -77q-119 0 -119 106q0 23 6 50q25 118 133 148l120 34q45 13 60 31q10 12 18 50q3 12 3 22q0 57 -72 57q-92 0 -114 -105zM213 610l131 142h77l70 -142h-78l-43 88l-79 -88h-78z" unicode="â"/>
<glyph glyph-name="atilde" d="M334 154l29 138q-21 -19 -76 -35q-65 -19 -80 -28q-47 -25 -59 -85q-4 -19 -4 -34q0 -58 60 -58q42 0 81.5 30.5t48.5 71.5zM205 374h-84q20 92 71.5 134t146.5 42q138 0 138 -96q0 -21 -8 -58l-63 -299q-4 -17 -4 -24q0 -19 20 -19q14 0 22 5l-13 -60q-31 -5 -50 -5 q-30 0 -42 6q-21 10 -21 42q0 10 1 21h-2q-59 -77 -145 -77q-119 0 -119 106q0 23 6 50q25 118 133 148l120 34q45 13 60 31q10 12 18 50q3 12 3 22q0 57 -72 57q-92 0 -114 -105zM472 740h54q-9 -42 -37 -74q-32 -37 -72 -37q-24 0 -61.5 19t-45.5 19q-32 0 -49 -45h-54 q10 45 44 78t73 33q20 0 55.5 -19t48.5 -19q25 0 44 45z" unicode="ã"/>
<glyph glyph-name="adieresis" d="M334 154l29 138q-21 -19 -76 -35q-65 -19 -80 -28q-47 -25 -59 -85q-4 -19 -4 -34q0 -58 60 -58q42 0 81.5 30.5t48.5 71.5zM205 374h-84q20 92 71.5 134t146.5 42q138 0 138 -96q0 -21 -8 -58l-63 -299q-4 -17 -4 -24q0 -19 20 -19q14 0 22 5l-13 -60q-31 -5 -50 -5 q-30 0 -42 6q-21 10 -21 42q0 10 1 21h-2q-59 -77 -145 -77q-119 0 -119 106q0 23 6 50q25 118 133 148l120 34q45 13 60 31q10 12 18 50q3 12 3 22q0 57 -72 57q-92 0 -114 -105zM399 634l21 101h78l-21 -101h-78zM237 634l21 101h78l-21 -101h-78z" unicode="ä"/>
<glyph glyph-name="aring" d="M334 154l29 138q-21 -19 -76 -35q-65 -19 -80 -28q-47 -25 -59 -85q-4 -19 -4 -34q0 -58 60 -58q42 0 81.5 30.5t48.5 71.5zM205 374h-84q20 92 71.5 134t146.5 42q138 0 138 -96q0 -21 -8 -58l-63 -299q-4 -17 -4 -24q0 -19 20 -19q14 0 22 5l-13 -60q-31 -5 -50 -5 q-30 0 -42 6q-21 10 -21 42q0 10 1 21h-2q-59 -77 -145 -77q-119 0 -119 106q0 23 6 50q25 118 133 148l120 34q45 13 60 31q10 12 18 50q3 12 3 22q0 57 -72 57q-92 0 -114 -105zM310 678q0 -19 13 -32t34 -13q26 0 48 21t22 48q0 19 -13 32t-33 13q-27 0 -49 -21t-22 -48z M390 789q35 0 57.5 -22t22.5 -56q0 -47 -37.5 -83.5t-84.5 -36.5q-36 0 -58.5 22t-22.5 56q0 47 38 83.5t85 36.5z" unicode="å"/>
<glyph glyph-name="ae" horiz-adv-x="667" unicode="æ" d="M327 174l22 105h-2q-6 -9 -66 -27l-74 -22q-47 -16 -62 -85q-4 -16 -4 -30q0 -63 59 -63q101 0 127 122zM590 176h84q-13 -62 -58 -116q-62 -74 -151 -74q-72 0 -104 42q-19 25 -19 51v5h-2q-66 -98 -170 -98q-56 0 -87.5 30t-31.5 83q0 20 5 43q25 117 134 148l133 38 q26 7 38 29q8 14 15 48q3 14 3 25q0 54 -66 54q-86 0 -108 -105l-2 -5h-84q38 176 214 176q108 0 112 -74h2q20 33 61 53.5t81 20.5q130 0 130 -138q0 -47 -16 -120l-7 -34h-273q-17 -81 -17 -119q0 -87 67 -87q91 0 117 124zM440 324h182l6 29q6 27 6 50q0 81 -67 81 q-54 0 -90 -58q-23 -37 -33 -82z"/>
<glyph glyph-name="ccedilla" horiz-adv-x="426" unicode="ç" d="M134 -81l61 67q-123 11 -123 153q0 51 15 122q62 289 253 289q139 0 139 -128q0 -24 -6 -49h-84q4 19 4 37q0 74 -65 74q-48 0 -80 -37q-44 -52 -72 -185q-16 -73 -16 -113q0 -97 73 -97q88 0 117 134h84q-16 -72 -60 -125q-55 -65 -137 -74l-37 -41l1 -2q15 6 31 6 q26 0 45 -13q21 -16 21 -45q0 -9 -2 -18q-8 -37 -45 -61.5t-80 -24.5q-65 0 -95 20l22 34q34 -12 62 -12q55 0 64 41q3 17 -9 27t-31 10q-28 0 -39 -7z"/>
<glyph glyph-name="egrave" d="M462 258h-282q-17 -77 -17 -115q0 -91 76 -91q91 0 117 124h84q-13 -63 -60 -116q-64 -74 -160 -74q-143 0 -143 153q0 51 15 122q62 289 253 289q139 0 139 -141q0 -46 -15 -117zM197 324h191l6 29q6 27 6 49q0 82 -71 82q-57 0 -94 -58q-24 -37 -34 -82zM264 752h98 l40 -142h-60z" unicode="è"/>
<glyph glyph-name="eacute" d="M462 258h-282q-17 -77 -17 -115q0 -91 76 -91q91 0 117 124h84q-13 -63 -60 -116q-64 -74 -160 -74q-143 0 -143 153q0 51 15 122q62 289 253 289q139 0 139 -141q0 -46 -15 -117zM197 324h191l6 29q6 27 6 49q0 82 -71 82q-57 0 -94 -58q-24 -37 -34 -82zM302 610 l100 142h98l-138 -142h-60z" unicode="é"/>
<glyph glyph-name="ecircumflex" d="M462 258h-282q-17 -77 -17 -115q0 -91 76 -91q91 0 117 124h84q-13 -63 -60 -116q-64 -74 -160 -74q-143 0 -143 153q0 51 15 122q62 289 253 289q139 0 139 -141q0 -46 -15 -117zM197 324h191l6 29q6 27 6 49q0 82 -71 82q-57 0 -94 -58q-24 -37 -34 -82zM213 610 l131 142h77l70 -142h-78l-43 88l-79 -88h-78z" unicode="ê"/>
<glyph glyph-name="edieresis" d="M462 258h-282q-17 -77 -17 -115q0 -91 76 -91q91 0 117 124h84q-13 -63 -60 -116q-64 -74 -160 -74q-143 0 -143 153q0 51 15 122q62 289 253 289q139 0 139 -141q0 -46 -15 -117zM197 324h191l6 29q6 27 6 49q0 82 -71 82q-57 0 -94 -58q-24 -37 -34 -82zM399 634 l21 101h78l-21 -101h-78zM237 634l21 101h78l-21 -101h-78z" unicode="ë"/>
<glyph glyph-name="igrave" horiz-adv-x="204" unicode="ì" d="M60 0l114 536h84l-114 -536h-84zM144 752h98l40 -142h-60z"/>
<glyph glyph-name="iacute" horiz-adv-x="204" unicode="í" d="M60 0l114 536h84l-114 -536h-84zM182 610l100 142h98l-138 -142h-60z"/>
<glyph glyph-name="icircumflex" horiz-adv-x="204" unicode="î" d="M60 0l114 536h84l-114 -536h-84zM93 610l131 142h77l70 -142h-78l-43 88l-79 -88h-78z"/>
<glyph glyph-name="idieresis" horiz-adv-x="204" unicode="ï" d="M60 0l114 536h84l-114 -536h-84zM279 634l21 101h78l-21 -101h-78zM117 634l21 101h78l-21 -101h-78z"/>
<glyph glyph-name="eth" d="M246 595l-29 42l80 40q-24 30 -63 67l70 28q36 -35 59 -61l83 42l29 -42l-78 -40q92 -117 92 -260q0 -65 -17 -143q-60 -282 -253 -282q-148 0 -148 161q0 52 15 121q57 268 250 268q32 0 55 -17h2q-30 67 -65 117zM320 470q-103 0 -146 -202q-15 -73 -15 -118 q0 -98 72 -98q107 0 153 216q12 59 12 100q0 102 -76 102z" unicode="ð"/>
<glyph glyph-name="ntilde" horiz-adv-x="463" unicode="ñ" d="M55 0l114 536h80l-13 -63h2q23 36 64 56.5t82 20.5q115 0 115 -97q0 -25 -10 -73l-81 -380h-84l79 370q6 29 6 47q0 61 -62 61q-40 0 -76 -25q-42 -30 -53 -83l-79 -370h-84zM482 740h54q-9 -42 -37 -74q-32 -37 -72 -37q-24 0 -61.5 19t-45.5 19q-32 0 -49 -45h-54 q10 45 44 78t73 33q20 0 55.5 -19t48.5 -19q25 0 44 45z"/>
<glyph glyph-name="ograve" d="M231 52q107 0 153 216q15 72 15 116q0 100 -76 100q-103 0 -149 -216q-15 -73 -15 -118q0 -98 72 -98zM86 268q60 282 253 282q148 0 148 -161q0 -52 -15 -121q-60 -282 -253 -282q-148 0 -148 161q0 51 15 121zM264 752h98l40 -142h-60z" unicode="ò"/>
<glyph glyph-name="oacute" d="M231 52q107 0 153 216q15 72 15 116q0 100 -76 100q-103 0 -149 -216q-15 -73 -15 -118q0 -98 72 -98zM86 268q60 282 253 282q148 0 148 -161q0 -52 -15 -121q-60 -282 -253 -282q-148 0 -148 161q0 51 15 121zM302 610l100 142h98l-138 -142h-60z" unicode="ó"/>
<glyph glyph-name="ocircumflex" d="M231 52q107 0 153 216q15 72 15 116q0 100 -76 100q-103 0 -149 -216q-15 -73 -15 -118q0 -98 72 -98zM86 268q60 282 253 282q148 0 148 -161q0 -52 -15 -121q-60 -282 -253 -282q-148 0 -148 161q0 51 15 121zM213 610l131 142h77l70 -142h-78l-43 88l-79 -88h-78z" unicode="ô"/>
<glyph glyph-name="otilde" d="M231 52q107 0 153 216q15 72 15 116q0 100 -76 100q-103 0 -149 -216q-15 -73 -15 -118q0 -98 72 -98zM86 268q60 282 253 282q148 0 148 -161q0 -52 -15 -121q-60 -282 -253 -282q-148 0 -148 161q0 51 15 121zM472 740h54q-9 -42 -37 -74q-32 -37 -72 -37 q-24 0 -61.5 19t-45.5 19q-32 0 -49 -45h-54q10 45 44 78t73 33q20 0 55.5 -19t48.5 -19q25 0 44 45z" unicode="õ"/>
<glyph glyph-name="odieresis" d="M231 52q107 0 153 216q15 72 15 116q0 100 -76 100q-103 0 -149 -216q-15 -73 -15 -118q0 -98 72 -98zM86 268q60 282 253 282q148 0 148 -161q0 -52 -15 -121q-60 -282 -253 -282q-148 0 -148 161q0 51 15 121zM399 634l21 101h78l-21 -101h-78zM237 634l21 101h78 l-21 -101h-78z" unicode="ö"/>
<glyph glyph-name="divide" horiz-adv-x="600" unicode="÷" d="M321 98q45 0 45 -44q0 -27 -21 -47.5t-48 -20.5q-45 0 -45 44q0 27 21 47.5t48 20.5zM411 520q45 0 45 -44q0 -27 -21.5 -47.5t-47.5 -20.5q-46 0 -46 44q0 27 21.5 47.5t48.5 20.5zM94 220l14 66h506l-14 -66h-506z"/>
<glyph glyph-name="oslash" d="M55 -40l49 76q-33 40 -33 114q0 49 15 118q60 282 253 282q49 0 80 -18l39 61l44 -21l-46 -71q31 -43 31 -114q0 -50 -15 -119q-60 -282 -253 -282q-49 0 -80 18l-41 -63zM161 126l214 337q-19 21 -52 21q-103 0 -149 -216q-14 -68 -14 -115q0 -15 1 -27zM397 407 l-215 -336q17 -19 49 -19q107 0 153 216q14 68 14 113q0 14 -1 26z" unicode="ø"/>
<glyph glyph-name="ugrave" horiz-adv-x="463" unicode="ù" d="M522 536l-114 -536h-80l13 63h-2q-23 -36 -64 -56.5t-82 -20.5q-115 0 -115 97q0 25 10 73l81 380h84l-79 -370q-6 -29 -6 -47q0 -61 62 -61q40 0 75 25q43 30 54 83l79 370h84zM274 752h98l40 -142h-60z"/>
<glyph glyph-name="uacute" horiz-adv-x="463" unicode="ú" d="M522 536l-114 -536h-80l13 63h-2q-23 -36 -64 -56.5t-82 -20.5q-115 0 -115 97q0 25 10 73l81 380h84l-79 -370q-6 -29 -6 -47q0 -61 62 -61q40 0 75 25q43 30 54 83l79 370h84zM312 610l100 142h98l-138 -142h-60z"/>
<glyph glyph-name="ucircumflex" horiz-adv-x="463" unicode="û" d="M522 536l-114 -536h-80l13 63h-2q-23 -36 -64 -56.5t-82 -20.5q-115 0 -115 97q0 25 10 73l81 380h84l-79 -370q-6 -29 -6 -47q0 -61 62 -61q40 0 75 25q43 30 54 83l79 370h84zM223 610l131 142h77l70 -142h-78l-43 88l-79 -88h-78z"/>
<glyph glyph-name="udieresis" horiz-adv-x="463" unicode="ü" d="M522 536l-114 -536h-80l13 63h-2q-23 -36 -64 -56.5t-82 -20.5q-115 0 -115 97q0 25 10 73l81 380h84l-79 -370q-6 -29 -6 -47q0 -61 62 -61q40 0 75 25q43 30 54 83l79 370h84zM409 634l21 101h78l-21 -101h-78zM247 634l21 101h78l-21 -101h-78z"/>
<glyph glyph-name="yacute" horiz-adv-x="406" unicode="ý" d="M166 -11l-42 547h92l15 -430h2l185 430h92l-277 -572q-34 -70 -62 -98q-42 -42 -110 -42q-19 0 -61 3l14 66q18 -3 49 -3q48 0 77 52zM283 610l100 142h98l-138 -142h-60z"/>
<glyph glyph-name="thorn" horiz-adv-x="463" unicode="þ" d="M18 -176l189 890h84l-51 -239h2q16 33 56 55q36 20 72 20q131 0 131 -157q0 -50 -14 -115q-24 -114 -76 -192q-67 -100 -161 -100q-36 0 -62.5 20.5t-33.5 54.5h-2l-50 -237h-84zM191 268q-13 -63 -13 -106q0 -104 76 -104q56 0 91 58q30 51 54 162q14 66 14 108 q0 92 -69 92q-65 0 -102 -59q-29 -47 -51 -151z"/>
<glyph glyph-name="OE" horiz-adv-x="796" unicode="Œ" d="M461 232l49 231q15 68 15 100q0 93 -108 93q-86 0 -136 -88q-38 -65 -69 -211q-24 -112 -24 -172q0 -127 102 -127q79 0 121 52q33 40 50 122zM571 334l-54 -256h272l-17 -78h-358l13 63h-2q-20 -35 -62 -56t-88 -21q-174 0 -174 193q0 71 23 178q35 165 95 253 q80 118 214 118q41 0 77.5 -18t45.5 -51h2l12 55h342l-17 -78h-260l-47 -224h244l-17 -78h-244z"/>
<glyph glyph-name="oe" horiz-adv-x="722" unicode="œ" d="M486 344l-4 -20h182l6 29q6 27 6 50q0 81 -67 81q-54 0 -90 -58q-23 -37 -33 -82zM389 268q15 70 15 115q0 101 -74 101q-100 0 -146 -216q-15 -71 -15 -117q0 -99 69 -99q105 0 151 216zM745 292l-7 -34h-273q-17 -81 -17 -119q0 -87 67 -87q91 0 117 124h84 q-13 -62 -58 -116q-62 -74 -151 -74q-111 0 -122 92q-60 -92 -161 -92q-142 0 -142 163q0 52 14 119q60 282 248 282q54 0 83 -21.5t45 -69.5q27 42 70.5 66.5t88.5 24.5q130 0 130 -138q0 -47 -16 -120z"/>
<glyph glyph-name="Scaron" horiz-adv-x="500" unicode="Š" d="M561 529h-88q6 26 6 46q0 81 -90 81q-118 0 -142 -116q-4 -17 -4 -31q0 -60 71 -92l132 -52q71 -39 71 -117q0 -23 -6 -50q-24 -113 -109 -168q-68 -44 -158 -44q-177 0 -177 145q0 39 12 93h88q-11 -50 -11 -77q0 -89 109 -89q54 0 96.5 35t54.5 91q4 17 4 31 q0 60 -71 93q-66 27 -131 54q-71 40 -71 118q0 24 6 51q15 73 63 123q69 74 188 74q164 0 164 -137q0 -28 -7 -62zM579 895l-131 -142h-77l-70 142h78l42 -88l80 88h78z"/>
<glyph glyph-name="scaron" horiz-adv-x="407" unicode="š" d="M450 379h-84q5 27 5 46q0 59 -62 59q-87 0 -105 -82q-1 -8 -1 -16q0 -32 35 -51q9 -5 78 -30q51 -19 71 -35q33 -27 33 -75q0 -18 -5 -41q-18 -82 -74.5 -125t-134.5 -43q-152 0 -152 123q0 27 8 67h84q-5 -28 -5 -48q0 -76 79 -76q31 0 58 16q39 23 50 73q2 11 2 21 q0 35 -35 57q-14 9 -75 31q-53 20 -72 34q-33 26 -33 75q0 19 5 43q16 72 75 111q54 37 128 37q134 0 134 -108q0 -24 -7 -63zM503 752l-131 -142h-77l-70 142h78l42 -88l80 88h78z"/>
<glyph glyph-name="Ydieresis" horiz-adv-x="462" unicode="Ÿ" d="M247 280l-97 434h97l65 -334l212 334h92l-281 -434l-60 -280h-88zM438 777l21 101h78l-21 -101h-78zM276 777l21 101h78l-21 -101h-78z"/>
<glyph glyph-name="circumflex" horiz-adv-x="204" unicode="ˆ" d="M93 610l131 142h77l70 -142h-78l-43 88l-79 -88h-78z"/>
<glyph glyph-name="tilde" horiz-adv-x="204" unicode="˜" d="M352 740h54q-9 -42 -37 -74q-32 -37 -72 -37q-24 0 -61.5 19t-45.5 19q-32 0 -49 -45h-54q10 45 44 78t73 33q20 0 55.5 -19t48.5 -19q25 0 44 45z"/>
<glyph glyph-name="endash" horiz-adv-x="500" unicode="–" d="M53 248l15 72h500l-15 -72h-500z"/>
<glyph glyph-name="emdash" horiz-adv-x="1000" unicode="—" d="M53 248l15 72h1000l-15 -72h-1000z"/>
<glyph glyph-name="quoteleft" horiz-adv-x="240" unicode="‘" d="M286 566l-22 -106h-92l18 87q15 70 36 103q30 48 92 64l-10 -47q-49 -21 -61 -77l-5 -24h44z"/>
<glyph glyph-name="quotesinglbase" horiz-adv-x="240" unicode="‚" d="M74 0l23 106h92l-19 -87q-15 -70 -36 -103q-30 -48 -91 -64l10 47q48 21 60 77l5 24h-44z"/>
<glyph glyph-name="quotedblleft" horiz-adv-x="407" unicode="“" d="M291 566l-22 -106h-92l18 87q15 70 36 103q30 48 92 64l-10 -47q-49 -21 -61 -77l-5 -24h44zM448 566l-22 -106h-92l18 87q15 70 36 103q30 48 92 64l-10 -47q-49 -21 -61 -77l-5 -24h44z"/>
<glyph glyph-name="quotedblright" horiz-adv-x="407" unicode="”" d="M323 714l-19 -87q-15 -70 -35 -103q-31 -48 -92 -64l10 47q48 21 60 77l5 24h-44l23 106h92zM480 714l-19 -87q-15 -70 -35 -103q-31 -48 -92 -64l10 47q48 21 60 77l5 24h-44l23 106h92z"/>
<glyph glyph-name="dagger" horiz-adv-x="482" unicode="†" d="M307 508l44 206h84l-44 -206h172l-15 -72h-172l-123 -576h-84l123 576h-172l15 72h172z"/>
<glyph glyph-name="daggerdbl" horiz-adv-x="482" unicode="‡" d="M310 521l41 193h84l-41 -193h172l-16 -72h-172l-67 -317h172l-15 -72h-172l-43 -200h-84l43 200h-172l15 72h172l67 317h-172l16 72h172z"/>
<glyph glyph-name="ellipsis" horiz-adv-x="1000" unicode="…" d="M787 0l23 106h92l-23 -106h-92zM454 0l23 106h92l-23 -106h-92zM121 0l23 106h92l-23 -106h-92z"/>
<glyph glyph-name="perthousand" horiz-adv-x="1037" unicode="‰" d="M548 -14q-103 0 -103 99q0 34 13 93q19 92 49 134q42 58 123 58q102 0 102 -99q0 -34 -12 -93q-20 -92 -49 -133q-42 -59 -123 -59zM560 40q38 0 58 38q14 27 30 100q13 62 13 88q0 50 -43 50q-38 0 -58 -38q-15 -27 -30 -100q-13 -62 -13 -88q0 -50 43 -50zM246 324 q-103 0 -103 99q0 34 13 93q19 92 49 134q42 58 122 58q103 0 103 -99q0 -34 -12 -93q-20 -92 -50 -133q-41 -59 -122 -59zM857 -14q-103 0 -103 99q0 34 13 93q19 92 49 134q42 58 123 58q102 0 102 -99q0 -34 -12 -93q-20 -92 -49 -133q-42 -59 -123 -59zM257 378 q39 0 59 38q14 27 30 100q13 62 13 88q0 50 -43 50q-38 0 -59 -38q-14 -27 -29 -100q-14 -62 -14 -88q0 -50 43 -50zM166 -14l463 722h70l-463 -722h-70zM869 40q38 0 58 38q14 27 30 100q13 62 13 88q0 50 -43 50q-38 0 -58 -38q-15 -27 -30 -100q-13 -62 -13 -88 q0 -50 43 -50z"/>
<glyph glyph-name="guilsinglleft" horiz-adv-x="240" unicode="‹" d="M101 245l17 78l172 143l-19 -88l-114 -94l74 -94l-18 -88z"/>
<glyph glyph-name="guilsinglright" horiz-adv-x="240" unicode="›" d="M260 323l-17 -78l-172 -143l18 88l114 94l-74 94l19 88z"/>
<glyph glyph-name="trademark" horiz-adv-x="990" unicode="™" d="M912 302l72 340h-2l-211 -340h-39l-67 340h-2l-72 -340h-66l88 412h98l63 -316l194 316h98l-88 -412h-66zM249 302l75 352h-133l13 60h329l-13 -60h-130l-75 -352h-66z"/>
</font>
</defs>
</svg>
